<mxfile host="Electron" agent="Mozilla/5.0 (Windows NT 10.0; Win64; x64) AppleWebKit/537.36 (KHTML, like Gecko) draw.io/24.7.17 Chrome/128.0.6613.36 Electron/32.0.1 Safari/537.36" version="24.7.17">
  <diagram name="Page-1" id="90a13364-a465-7bf4-72fc-28e22215d7a0">
    <mxGraphModel dx="1707" dy="1180" grid="1" gridSize="10" guides="1" tooltips="1" connect="1" arrows="1" fold="1" page="1" pageScale="1.5" pageWidth="1169" pageHeight="826" background="none" math="0" shadow="0">
      <root>
        <mxCell id="0" style=";html=1;" />
        <mxCell id="1" style=";html=1;" parent="0" />
        <mxCell id="Tc_OuXDSwI6SenO9y1wO-8" value="" style="edgeStyle=orthogonalEdgeStyle;rounded=0;orthogonalLoop=1;jettySize=auto;html=1;" edge="1" parent="1" source="3a17f1ce550125da-1" target="Tc_OuXDSwI6SenO9y1wO-1">
          <mxGeometry relative="1" as="geometry" />
        </mxCell>
        <mxCell id="3a17f1ce550125da-1" value="ESP32" style="whiteSpace=wrap;html=1;shadow=1;fontSize=20;fillColor=#f5f5f5;strokeColor=#666666;strokeWidth=2;dashed=1;fontColor=#000000;" parent="1" vertex="1">
          <mxGeometry x="787" y="250" width="150" height="60" as="geometry" />
        </mxCell>
        <mxCell id="Tc_OuXDSwI6SenO9y1wO-20" value="" style="edgeStyle=orthogonalEdgeStyle;rounded=0;orthogonalLoop=1;jettySize=auto;html=1;" edge="1" parent="1" source="3a17f1ce550125da-2" target="Tc_OuXDSwI6SenO9y1wO-17">
          <mxGeometry relative="1" as="geometry" />
        </mxCell>
        <mxCell id="Tc_OuXDSwI6SenO9y1wO-25" value="" style="edgeStyle=orthogonalEdgeStyle;rounded=0;orthogonalLoop=1;jettySize=auto;html=1;" edge="1" parent="1" source="3a17f1ce550125da-2" target="Tc_OuXDSwI6SenO9y1wO-10">
          <mxGeometry relative="1" as="geometry" />
        </mxCell>
        <mxCell id="3a17f1ce550125da-2" value="Raspberry Pi - MQTT Broker" style="whiteSpace=wrap;html=1;shadow=1;fontSize=18;fillColor=#f5f5f5;strokeColor=#666666;fontColor=#050505;" parent="1" vertex="1">
          <mxGeometry x="777" y="440" width="170" height="120" as="geometry" />
        </mxCell>
        <mxCell id="Tc_OuXDSwI6SenO9y1wO-9" value="" style="edgeStyle=orthogonalEdgeStyle;rounded=0;orthogonalLoop=1;jettySize=auto;html=1;" edge="1" parent="1" source="Tc_OuXDSwI6SenO9y1wO-1" target="3a17f1ce550125da-2">
          <mxGeometry relative="1" as="geometry" />
        </mxCell>
        <mxCell id="Tc_OuXDSwI6SenO9y1wO-1" value="&lt;div&gt;WiFi with mTLS&lt;/div&gt;" style="rhombus;whiteSpace=wrap;html=1;fillColor=#f4effb;fontColor=#110909;" vertex="1" parent="1">
          <mxGeometry x="806.5" y="340" width="111" height="80" as="geometry" />
        </mxCell>
        <mxCell id="Tc_OuXDSwI6SenO9y1wO-2" style="edgeStyle=orthogonalEdgeStyle;rounded=0;orthogonalLoop=1;jettySize=auto;html=1;exitX=0.5;exitY=1;exitDx=0;exitDy=0;" edge="1" parent="1" source="Tc_OuXDSwI6SenO9y1wO-1" target="Tc_OuXDSwI6SenO9y1wO-1">
          <mxGeometry relative="1" as="geometry" />
        </mxCell>
        <mxCell id="Tc_OuXDSwI6SenO9y1wO-12" value="" style="edgeStyle=orthogonalEdgeStyle;rounded=0;orthogonalLoop=1;jettySize=auto;html=1;" edge="1" parent="1" source="Tc_OuXDSwI6SenO9y1wO-6" target="3a17f1ce550125da-1">
          <mxGeometry relative="1" as="geometry" />
        </mxCell>
        <mxCell id="Tc_OuXDSwI6SenO9y1wO-6" value="Tempsensor" style="rounded=0;whiteSpace=wrap;html=1;fontColor=#090707;fillColor=#f4eefb;" vertex="1" parent="1">
          <mxGeometry x="792" y="170" width="140" height="50" as="geometry" />
        </mxCell>
        <mxCell id="Tc_OuXDSwI6SenO9y1wO-26" value="" style="edgeStyle=orthogonalEdgeStyle;rounded=0;orthogonalLoop=1;jettySize=auto;html=1;" edge="1" parent="1" source="Tc_OuXDSwI6SenO9y1wO-10" target="Tc_OuXDSwI6SenO9y1wO-15">
          <mxGeometry relative="1" as="geometry" />
        </mxCell>
        <mxCell id="Tc_OuXDSwI6SenO9y1wO-10" value="&lt;div&gt;Remote SSH -&lt;/div&gt;Wireguard/Netbird" style="rhombus;whiteSpace=wrap;html=1;fillColor=#efecf3;fontColor=#000000;" vertex="1" parent="1">
          <mxGeometry x="782" y="580" width="160" height="100" as="geometry" />
        </mxCell>
        <mxCell id="Tc_OuXDSwI6SenO9y1wO-15" value="Laptop" style="rounded=0;whiteSpace=wrap;html=1;fillColor=#f7f5fa;fontColor=#0b0a0a;" vertex="1" parent="1">
          <mxGeometry x="802" y="700" width="120" height="60" as="geometry" />
        </mxCell>
        <mxCell id="Tc_OuXDSwI6SenO9y1wO-22" value="" style="edgeStyle=orthogonalEdgeStyle;rounded=0;orthogonalLoop=1;jettySize=auto;html=1;" edge="1" parent="1" source="Tc_OuXDSwI6SenO9y1wO-17" target="Tc_OuXDSwI6SenO9y1wO-21">
          <mxGeometry relative="1" as="geometry" />
        </mxCell>
        <mxCell id="Tc_OuXDSwI6SenO9y1wO-17" value="InfluxDB" style="rounded=0;whiteSpace=wrap;html=1;strokeColor=#0e0b0b;fillColor=#fcfaff;fontColor=#0F0F0F;" vertex="1" parent="1">
          <mxGeometry x="970" y="470" width="120" height="60" as="geometry" />
        </mxCell>
        <mxCell id="Tc_OuXDSwI6SenO9y1wO-21" value="Grafana Visual" style="rounded=0;whiteSpace=wrap;html=1;strokeColor=#0e0b0b;fillColor=#fcfaff;fontColor=#0F0F0F;" vertex="1" parent="1">
          <mxGeometry x="1110" y="470" width="120" height="60" as="geometry" />
        </mxCell>
      </root>
    </mxGraphModel>
  </diagram>
</mxfile>
